<?xml version="1.0" encoding="utf-8"?>
<!-- Generator: Adobe Illustrator 27.0.0, SVG Export Plug-In . SVG Version: 6.00 Build 0)  -->
<svg version="1.1" id="Camada_1" xmlns="http://www.w3.org/2000/svg" xmlns:xlink="http://www.w3.org/1999/xlink" x="0px" y="0px"
	 viewBox="0 0 203.4 224.1" style="enable-background:new 0 0 203.4 224.1;" xml:space="preserve">
<style type="text/css">
	.st0{fill:#F8B707;}
</style>
<g>
	<path class="st0" d="M109,83.6c1.6,0.1,2.9,1.5,2.8,3.1c-0.1,1.5-1.4,2.7-3,2.7c-1.6,0-2.9-1.4-2.8-3
		C106.1,84.8,107.5,83.6,109,83.6z"/>
	<path class="st0" d="M144.6,151.1c0,1.5-1.3,2.8-2.8,2.8c-1.6,0-2.9-1.4-2.9-3c0.1-1.6,1.4-2.8,3.1-2.7
		C143.5,148.3,144.7,149.5,144.6,151.1z"/>
	<path class="st0" d="M108.8,103c1.6,0,3,1.3,2.9,2.9c0,1.5-1.3,2.8-2.8,2.8c-1.6,0-3-1.3-2.9-2.9C106,104.3,107.3,103,108.8,103z"
		/>
	<path class="st0" d="M106.1,131c0,1.6-1.3,3-2.9,2.9c-1.5,0-2.8-1.4-2.8-2.9c0-1.6,1.3-2.9,3-2.9
		C104.9,128.2,106.1,129.4,106.1,131z"/>
	<path class="st0" d="M130.9,112.1c0,1.6-1.4,2.9-3,2.8c-1.6-0.1-2.7-1.3-2.7-2.9c0-1.7,1.3-2.9,2.9-2.8
		C129.6,109.3,130.9,110.5,130.9,112.1z"/>
	<path class="st0" d="M132.7,140.1c0,1.7-1.3,2.9-3,2.8c-1.6,0-2.8-1.2-2.8-2.8c0-1.6,1.4-3,2.9-2.9
		C131.5,137.3,132.7,138.6,132.7,140.1z"/>
	<path class="st0" d="M92.9,73.5c-2.4-0.7-4.8-0.6-7.3-0.6c-1.6,0-2.5,1.2-2.6,2.8c-0.1,1.5,1.1,2.7,2.8,2.9
		c1.4,0.1,2.8,0.2,4.2,0.3c2.1,0.1,3.3,1.2,3.3,3c0.1,1.8-1.2,3.1-3.3,3.3c-2.7,0.2-5.5,0.5-8.3,0.7c-4.6,0.2-9.1,1.3-13.6-0.7
		c-2.6-1.1-5.3-1.9-8-2.6c-1.8-0.5-2.1-1.8-1.8-3.2c0.5-2,1.3-3.9,2.1-6.2c0.7,1.2,1.2,2,1.7,2.9c0.5,0.9,1.2,1.6,2.2,1.7
		c2.7,0.2,5.5,0.4,8.3,0.4c1.7,0,2.7-1.4,2.7-2.9c-0.1-1.7-1-2.6-2.6-2.7c-1.6-0.1-3.2-0.3-4.8-0.3c-1,0-1.5-0.4-1.9-1.2
		c-2.3-4.1-4.5-8.2-6.9-12.2c-3.9-6.5-9.8-9.6-17.3-8.9c-7.7,0.8-12.9,5.2-15.4,12.6c-0.8,2.5-1.5,5.2-2.2,7.8
		c-2.8,10.5-6.2,20.9-8.4,31.5c-1.7,8.3-2.4,16.7-0.2,25c2.3,8.7,4.7,17.3,7.1,25.9c0.9,3,1.5,6,1,9.3c-0.3,2.1-0.4,4.3-0.5,6.5
		c-0.1,3,0.9,4,3.9,4c4.4,0,8.9,0,13.3,0c1.1,0,1.5,0.2,1.4,1.5c-0.6,5.5-1,11-1.6,16.5c-0.2,2.1,0,3.9,1.2,5.7
		c1.7,2.8,3.3,5.8,5,8.8c-5.4,0-10.5,0.1-15.6,0c-2.7-0.1-4.2-2.1-4-4.9c0.1-2.2,0.4-4.5,0.5-6.7c0.2-3.3,0.5-6.7,0.6-10
		c0.1-1.8-0.9-2.9-2.5-3.1c-1.6-0.2-2.8,0.7-3.1,2.4c-0.1,0.7-0.2,1.4-0.2,2.1c-0.3,4.9-0.7,9.9-1,14.8c-0.3,4.2,1.9,8.4,5.8,10.3
		c0.6,0.3,1.4,0.3,1.8,0.9c12.2,0,24.4,0,36.6,0c4.8-2.5,5.5-5.4,2.6-10.1c-1.4-2.2-2.7-4.4-4.1-6.5c-0.6-1-0.9-1.9-0.9-3.1
		c0-12.3,0-24.5,0-36.8c0-2-0.3-3.9-0.9-5.9c-3.8-11.5-7.4-23-11.5-34.4c-1.4-3.9-1.6-7.3,0.1-11c0.5-1.2,1-1.5,2.2-1.2
		c8.2,1.6,16.5,3.2,24.7,4.8c4.7,0.9,9.2-2.2,10.3-6.8c0.8-3.2-0.3-5.9-2.5-8.5c3,0,5.8-0.2,8.3-1.3c3.7-1.5,5.7-4.5,5.6-8.6
		C99,77.9,96.5,74.6,92.9,73.5z M42.8,162.7c-0.3,4-0.2,4-4.1,4c-2.6,0-5.3-0.1-7.9,0c-1.3,0-2-0.2-1.6-1.7c0.1-0.4,0-0.8,0.1-1.1
		c1.5-7.3-1.5-13.9-3.3-20.6c-1.7-6.8-3.8-13.4-5.3-20.2c-1.4-5.9-0.8-11.9,0.2-17.8c0.1-0.8,0.4-1.1,1.3-0.8c6.5,2,12.9,4,19.4,5.9
		c1.2,0.3,1.1,1,1.1,1.9c0,7.8,0,15.5,0,23.3C42.9,144.6,43.5,153.7,42.8,162.7z M63.6,204.9c-3.7,0-6.9,0-10.2,0
		c-0.5,0-1.1,0.3-1.3-0.5c-1.1-3.8-3.5-6.9-5.3-10.4c-0.7-1.4-1-2.6-0.8-4.2c0.5-5,1-9.9,1.4-14.9c0.1-1.9,0.5-2.8,2.6-2.5
		c1.8,0.2,3.6,0.1,5.4,0c1.3-0.1,1.6,0.4,1.6,1.6c-0.1,6.1,0,12.2,0,18.3c0,1.4,0.3,2.6,1.1,3.8C59.9,198.9,61.6,201.8,63.6,204.9z
		 M53.6,141.9c3.2,7.5,3.7,15.3,3.3,23.3c0,1-0.2,1.5-1.4,1.5c-2-0.1-4.1,0-6.2,0c-0.8,0-1.3-0.1-1.2-1.1c1.3-11.6,0.4-23.3,0.4-35
		c0-0.8,0-1.5,0-2.3c0.1,0,0.2-0.1,0.3-0.1C50.5,132.8,51.7,137.5,53.6,141.9z M82,98.5c-0.4,1.7-1.9,2.7-3.8,2.3
		c-3.7-0.6-7.3-1.4-11-2.1c-5.1-1-10.2-2-15.3-2.9c-2.6-0.5-4.4-1.8-5.3-4.4c-2.4-6.4-4.9-12.8-7.3-19.2c-0.5-1.2-1.1-2.2-2.4-2.5
		c-2.2-0.5-4,1.6-3.2,3.9c2.7,7.2,5.5,14.3,8.3,21.5c0.3,0.9,1,1.6,1.6,2.4c0.5,0.8,1.9,1.2,1.8,2.1c-0.2,1.6-0.9,3.2-1.5,4.7
		c-0.3,0.7-0.9,0.3-1.3,0.2c-6.4-1.9-12.7-3.9-19.1-5.8c-1-0.3-1-0.7-0.8-1.6c3.1-11,6-22,9.1-33c1.6-5.7,6.7-9.2,12.5-8.8
		c5.5,0.4,10.2,4.6,11,9.9c0,0.5,0.5,1.1-0.4,1.2c-0.9-1.5-2.1-2.3-3.8-1.5c-1.8,0.8-1.9,2.3-1.5,3.9c1.3,5.2,2.6,10.3,3.9,15.5
		c0.4,1.4,1.2,2.3,2.6,2.7c7.4,2.3,14.9,4.8,22.3,7.2c0.5,0.2,1,0.3,1.5,0.5C81.5,95.4,82.4,96.9,82,98.5z"/>
	<path class="st0" d="M189.2,180.3c-0.4-1.6-1.5-2.3-3.1-2.3c-0.3,0-0.6,0.3-0.9-0.1c0-0.2,0.1-0.4,0.1-0.7c0.2-1.8-0.7-3.2-2.2-3.5
		c-1.5-0.3-2.9,0.6-3.4,2.3c-0.2,0.7-0.4,1.4-0.5,2.1c-0.2,1.1-0.7,1.7-1.9,1.9c-2.5,0.4-5,1-7.5,1.6c-1,0.2-1.5,0-1.6-1.1
		c-0.3-2.3-0.9-4.5-2-6.6c-1.3-2.6-3.2-4.7-6.2-5.3c-5.5-1.2-10.5,2-11.9,7.6c-0.3,1.3-0.7,2.3-2,2.9c-2,1-3.4,2.8-4.4,4.7
		c-0.8,1.6-0.4,3.2,1,4c1.4,0.8,2.9,0.4,4-1.1c0.3-0.4,0.3-1,0.9-1.1c0,0.1,0.1,0.1,0.1,0.2c0.1,0.8,0.3,1.6,0.4,2.5
		c1.1,6.6,4,11.9,10.5,14.6c1.6,0.7,2,1.5,1.8,3c-0.2,1.9-0.1,3.7,1.9,4.8c0.6,0,1.3,0,1.9,0c1.9-0.5,2.4-1.9,2.4-3.6
		c0-0.9-0.1-1.7,1.3-1.8c1.4,0,1.6,0.6,1.6,1.7c0,1.7,0.5,3.1,2.4,3.6c0.6,0,1.3,0,1.9,0c1.5-0.8,2.2-2.1,2-3.8c-0.1-1,0-2.1,0-3.1
		c0-0.6,0.1-1.1,0.7-1.4c5.1-3.5,6.8-8.7,7.3-14.4c0.2-2.4,0.5-4,3.4-4.3C188.7,183.5,189.5,181.8,189.2,180.3z M176.3,194
		c-1.8,3.7-4.9,5.1-8.8,5c-8.7-0.2-13.1-4.3-14-13.1c-0.2-2.4-0.3-4.7-0.1-7.1c0.1-1.3,0.5-2.5,1.5-3.5c1.8-1.8,4.5-1.5,5.8,0.7
		c1.4,2.2,1.7,4.8,2.1,7.3c0.1,0.7,0.1,1.4,0.2,2.1c0.4,2.3,1.7,3.2,4,2.7c3.7-0.8,7.4-1.5,11.3-2.3
		C178.1,188.8,177.5,191.5,176.3,194z"/>
	<path class="st0" d="M133.1,183.5c-1.1-1.9-2.5-3.5-4.4-4.5c-1-0.5-1.4-1.2-1.6-2.3c-1-4.7-4.4-7.8-9.2-8.2
		c-4.1-0.4-7.5,1.9-9.5,6.4c-0.8,1.8-1.3,3.8-1.6,5.7c-0.1,1.1-0.4,1.4-1.6,1.1c-2-0.5-4-1.1-6-1.3c-2.5-0.2-3.5-1.3-3.9-3.7
		c-0.3-2.2-1.9-3.3-3.5-2.9c-1.7,0.4-2.4,1.7-2.2,4.1c0,0.1-0.1,0.2-0.1,0.4c-1.6-0.4-2.9,0-3.7,1.6c-0.6,1.3-0.3,2.4,0.7,3.3
		c0.7,0.7,1.6,0.9,2.5,0.9c1.6,0.1,1.8,0.9,1.9,2.3c0.3,5.5,1.4,10.9,5.8,14.6c1.9,1.6,2.6,3.2,2.3,5.5c-0.2,1.8,0.3,3.3,1.9,4.2
		c0.6,0,1.3,0,1.9,0c1.7-0.4,2.4-1.6,2.4-3.2c0-1.1-0.2-2.1,1.6-2.1c1.9,0,1.7,1.2,1.6,2.3c0,1.5,0.6,2.6,2,3.1c0.8,0,1.5,0,2.3,0
		c1.9-1.3,1.8-3.3,1.7-5.3c0-0.9-0.2-1.7,1.1-2.1c6-2.2,9.3-6.7,10.7-12.8c0.4-1.6,0.6-3.2,1-5c0.3,0.5,0.5,0.7,0.7,1
		c1.2,1.8,2.7,2.4,4.2,1.5C133.9,187.1,134.2,185.4,133.1,183.5z M119.5,192.7c-1,2.2-2.8,3.9-5,4.8c-3.3,1.4-6.7,1.8-10.2,1.2
		c-2.1-0.4-3.8-1.6-5-3.3c-1.9-2.9-2.5-6.1-2.7-9.6c3.9,0.8,7.6,1.6,11.4,2.4c2.4,0.5,3.8-0.6,4-3.1c0.2-2.6,0.5-5.2,1.5-7.7
		c0.7-1.7,1.6-3.3,3.8-3.2c2.1,0.1,3.6,1.4,3.9,3.8C122.1,183.1,121.7,188,119.5,192.7z"/>
	<path class="st0" d="M74.1,26.1c-1.2-0.1-2.4-0.1-3.7,0c-1.2,0.1-1.6-0.3-1.8-1.5c-1.1-6.5-6.8-11.2-13.4-11.2
		c-6.4,0-12,4.5-13.2,10.8c-0.3,1.7-1,2.1-2.5,1.9c-1.3-0.1-2.6-0.1-3.8,0c-1.7,0.1-2.8,1.3-2.9,2.8c0,1.5,1.1,2.8,2.8,2.9
		c0.8,0.1,1.7,0,2.5,0c1.1,0,2.4-0.3,3.2,0.1c0.8,0.5,0.2,1.9,0.4,2.9c1.3,7.2,7.4,12,14.5,11.6c6.6-0.4,12.2-6,12.6-13
		c0.1-1.6,0.6-1.7,1.9-1.7c1.1,0.1,2.3,0.1,3.5,0c1.6-0.2,2.7-1.5,2.6-3C76.7,27.2,75.7,26.2,74.1,26.1z M54.4,19.2
		c3.5-0.4,6.9,1.8,8.2,5.1c0.5,1.3,0.4,1.8-1.2,1.8c-4.6-0.1-9.1,0-13.8,0C48.2,22.3,50.9,19.6,54.4,19.2z M63.1,33.2
		c-0.3,4.2-3.7,7.6-7.9,7.6c-4,0-7.6-3.5-7.8-7.5c-0.1-1,0.1-1.5,1.3-1.4c2.2,0.1,4.3,0,6.5,0c2.2,0,4.4,0,6.5,0
		C62.8,31.8,63.2,32,63.1,33.2z"/>
</g>
</svg>
