<?xml version="1.0" encoding="utf-8"?>
<!-- Generator: Adobe Illustrator 27.0.0, SVG Export Plug-In . SVG Version: 6.00 Build 0)  -->
<svg version="1.1" id="Camada_1" xmlns="http://www.w3.org/2000/svg" xmlns:xlink="http://www.w3.org/1999/xlink" x="0px" y="0px"
	 viewBox="0 0 203.4 224.1" style="enable-background:new 0 0 203.4 224.1;" xml:space="preserve">
<style type="text/css">
	.st0{fill:#F8B707;}
</style>
<g>
	<path class="st0" d="M191.1,103c-2-2.6-4.2-4.9-6.7-6.9c-4.2-3.2-4.9-6.9-3.1-11.8c1.4-3.7,2.5-7.6,2.6-11.7
		c-0.1-1.1-0.2-2.3-0.4-3.4c-1.2-5.4-4.9-8.3-9.8-10c-3.4-1.2-6.9-2-10.4-2.7c-3.4-0.7-5.3-2.7-6-6.1c-0.8-3.6-1.5-7.3-2.9-10.7
		c-3-7.7-8.5-10.8-16.7-9.3c-3.7,0.7-7.3,1.9-10.9,2.9c-2.9,0.8-5.2,0.2-7.3-2c-2.8-2.9-5.4-6-8.6-8.5c-6-4.7-12.3-4.7-18.3,0
		c-3.4,2.6-6.1,5.9-9,8.8c-1.9,1.9-4,2.5-6.5,1.7c-3.3-0.9-6.5-1.9-9.8-2.7c-9.7-2.3-15.9,1.3-18.8,10.8c-1,3.2-1.8,6.4-2.5,9.6
		c-0.6,2.9-2.3,4.6-5.2,5.2c-3.3,0.7-6.6,1.6-9.8,2.6C22,61.5,18.4,67.4,20,76.5c0.6,3.4,1.7,6.7,2.7,10c1,3.2,0.4,5.8-2.2,8.1
		c-2.9,2.6-5.8,5.2-8.2,8.3c-4.7,6-4.7,12.2,0,18.3c2.5,3.2,5.5,5.8,8.5,8.6c2.2,2.1,2.9,4.4,2,7.3c-1,3.1-1.8,6.3-2.6,9.4
		c-2.2,9.7,1.4,15.9,10.8,18.8c3.2,1,6.4,1.8,9.6,2.5c2.9,0.7,4.4,2.4,5.2,5.2c1,3.9,1.7,7.9,3.2,11.6c3,7.4,8.6,10.5,16.5,9.1
		c3.8-0.7,7.4-1.9,11.1-2.9c2.9-0.8,5.1-0.3,7.1,2c2.2,2.4,4.5,4.8,6.9,7c7.3,6.8,14.6,6.8,21.9,0c2.5-2.3,4.9-4.8,7.2-7.2
		c1.9-2,4-2.6,6.6-1.8c3.3,1,6.5,1.9,9.8,2.7c9.6,2.2,15.8-1.3,18.7-10.7c1-3.2,1.8-6.5,2.6-9.8c0.6-2.8,2.3-4.4,5.1-5.1
		c3.6-0.9,7.4-1.6,10.9-2.9c8.1-2.9,11.4-8.5,9.9-17.1c-0.6-3.6-1.8-7.1-2.8-10.5c-0.9-3.1-0.3-5.4,2.1-7.6c2.9-2.7,6-5.4,8.5-8.6
		C195.7,115.2,195.7,108.9,191.1,103z M181.9,114c-2,2.4-4.4,4.5-6.7,6.7c-3,3-5.8,6.2-6.6,10.5c-0.6,3.7,0.1,7.3,1.1,10.8
		c0.8,2.8,1.7,5.6,2.3,8.5c0.3,1.7-0.3,2.6-1.8,3.2c-3,1.1-6.1,1.8-9.3,2.5c-8.3,1.8-13.4,6.7-15.1,15.1c-0.3,1.2-0.5,2.5-0.9,3.7
		c-0.5,1.9-1,3.9-1.7,5.8c-0.6,1.5-1.4,2-3,1.7c-3.8-0.7-7.5-2-11.3-3c-6.7-1.7-12.4-0.2-17.3,4.7c-2.3,2.3-4.4,4.6-6.8,6.9
		c-2.9,2.8-3.7,2.8-6.7,0c-2.3-2.2-4.4-4.5-6.6-6.7c-3.8-3.8-8.3-6.1-13.9-5.4c-2.2,0.3-4.3,0.8-6.4,1.4c-2.8,0.8-5.5,1.7-8.4,2.2
		c-1.5,0.3-2.4-0.2-2.9-1.6c-1.2-3.1-1.9-6.2-2.6-9.4c-1.8-8.4-6.8-13.5-15.2-15.2c-1.2-0.3-2.5-0.5-3.7-0.9c-2-0.5-4-1-5.9-1.8
		c-1-0.4-1.7-1.1-1.5-2.2c0.4-3.2,1.5-6.2,2.3-9.2c0.6-2.1,1.1-4.1,1.3-6.3c0.5-4.6-0.9-8.7-3.9-12.2c-2.4-2.9-5.4-5.3-8-8
		c-3.1-3.3-3.1-4,0-7.2c1.8-1.9,3.7-3.7,5.7-5.5c5.9-5.4,7.6-11.9,5.3-19.5c-1-3.3-2-6.6-2.7-10c-0.3-1.6,0.3-2.5,1.7-3
		c3-1.1,6.1-1.8,9.3-2.5c8.5-1.8,13.6-6.9,15.3-15.4c0.3-1.3,0.6-2.6,0.9-3.8c0.5-1.8,1-3.5,1.5-5.2c0.5-1.6,1.5-2.1,3.2-1.8
		c3.8,0.7,7.4,2,11.1,2.9c6.7,1.7,12.4,0.3,17.3-4.6c2.3-2.3,4.4-4.6,6.8-6.9c3-2.9,3.8-2.9,6.8,0c2,1.9,3.9,3.9,5.8,6
		c5.4,5.8,11.8,7.5,19.4,5.2c3.2-1,6.5-1.9,9.8-2.6c1.9-0.4,2.9,0.3,3.4,2c1,3,1.7,6,2.4,9.1c1.8,8.2,6.7,13.3,14.9,15
		c1.2,0.3,2.5,0.5,3.7,0.9c2.1,0.5,4.1,1,6.1,1.8c1.3,0.6,1.7,1.4,1.5,2.8c-0.6,3.4-1.6,6.6-2.6,9.8c-2.4,7.9-0.6,14.6,5.5,20.1
		c2.4,2.1,4.7,4.3,6.8,6.8C183.1,111.4,183.1,112.6,181.9,114z"/>
	<path class="st0" d="M152,103.2c1.7-1.7,2.4-3.7,1.6-6c-0.7-2.4-2.5-3.7-4.9-4.1c-9.1-1.3-18.2-2.7-27.3-3.9
		c-1.2-0.2-1.8-0.7-2.3-1.7c-3.9-7.9-7.9-15.7-11.7-23.6c-1.2-2.4-2.9-3.7-5.6-3.8c-2.7,0-4.5,1.3-5.7,3.8
		c-3.8,7.7-7.7,15.2-11.4,22.9c-0.8,1.7-1.9,2.3-3.7,2.5c-8.6,1.2-17.2,2.5-25.8,3.6c-2.7,0.4-4.7,1.5-5.5,4.2
		c-0.8,2.6,0.3,4.7,2.2,6.6c6.4,6.1,12.8,12.3,19.2,18.4c0.6,0.6,1.1,1,0.9,2c-0.9,4.4-1.6,8.9-2.4,13.4c-0.9,5-1.7,9.9-2.6,14.9
		c0,1.1,0.3,2.1,0.8,3.1c1.7,2.9,4.9,3.7,8.2,2c8-4.1,16-8.2,23.9-12.4c1.2-0.6,2.1-0.6,3.3,0c7.8,4.1,15.7,8.1,23.5,12.3
		c2.4,1.2,4.6,1.5,6.9-0.1c2.3-1.6,2.6-4,2.2-6.6c-1.5-8.6-2.9-17.2-4.5-25.8c-0.3-1.4,0.1-2.2,1.1-3.1
		C139,115.7,145.5,109.4,152,103.2z M127.3,110.8c-8.5,8.3-8.7,9-6.5,20.5c0.7,3.4,1.2,6.9,1.9,10.8c-5.2-2.7-10-5.1-14.7-7.6
		c-4.2-2.3-8.3-2.2-12.6,0.1c-4.3,2.3-8.7,4.5-13,6.8c-0.4,0.2-0.9,0.4-1.6,0.7c0.8-4.4,1.5-8.6,2.2-12.8c0.2-1.3,0.4-2.6,0.7-3.9
		c0.7-4.2-0.6-7.7-3.6-10.6c-3.5-3.4-7.1-6.8-10.6-10.2c-0.4-0.4-1-0.8-1.9-1.5c3.9-0.6,7.2-1,10.5-1.5c2.4-0.3,4.7-0.7,7.1-1
		c4.2-0.6,7.1-2.9,9-6.7c2.5-4.9,4.9-9.9,7.4-14.8c0.7,0.1,0.7,0.7,0.9,1.1c2.2,4.3,4.4,8.6,6.5,13c2.2,4.7,5.9,7.1,11,7.7
		c4.7,0.5,9.5,1.3,14.2,2c0.2,0,0.3,0.1,0.4,0.1c0.1-0.1,0.1-0.1,0.2-0.2c0.1,0.2,0,0.2-0.2,0.2
		C132.1,105.5,129.8,108.3,127.3,110.8z"/>
</g>
</svg>
