<?xml version="1.0" encoding="utf-8"?>
<!-- Generator: Adobe Illustrator 27.0.0, SVG Export Plug-In . SVG Version: 6.00 Build 0)  -->
<svg version="1.1" id="Camada_1" xmlns="http://www.w3.org/2000/svg" xmlns:xlink="http://www.w3.org/1999/xlink" x="0px" y="0px"
	 viewBox="0 0 203.4 224.1" style="enable-background:new 0 0 203.4 224.1;" xml:space="preserve">
<style type="text/css">
	.st0{fill:#F8B707;}
</style>
<g>
	<path class="st0" d="M35.4,19.4c3.5,4.5,4,9.6,2.4,14.9c-0.2,0.6-0.4,1.3-0.8,1.8c-2.4,3.7-2.4,7.4-0.2,11.2c0.8,1.4,0.3,2.8-1,3.6
		c-1.3,0.8-2.9,0.4-3.7-1c-2.7-4.5-3.6-9.3-1-14.1c2.3-4.1,2.7-8.1,0.7-12.4c-0.8-1.7,0.1-2.9,1.4-4C34,19.4,34.7,19.4,35.4,19.4z"
		/>
	<path class="st0" d="M157.7,80.2c-0.1-2,0.5-4.1,1.6-6c2.3-3.9,2.4-7.8,0.7-11.9c-0.8-1.9-0.2-3.4,1.4-4c1.5-0.6,2.8,0.1,3.6,2.1
		c2.2,5.3,2.4,10.5-0.6,15.6c-1.8,3.2-1.6,6.3,0.1,9.4c1.1,1.9,0.7,3.6-0.8,4.3c-1.5,0.8-3,0.1-4-1.9
		C158.5,85.6,157.7,83.1,157.7,80.2z"/>
	<path class="st0" d="M170.4,110.4c-0.1-2,0.5-4.1,1.6-5.9c2.3-3.9,2.4-7.8,0.7-11.9c-0.8-1.8-0.2-3.4,1.3-4c1.6-0.7,3,0.1,3.8,2
		c2.2,5.3,2.3,10.5-0.6,15.6c-1.8,3.1-1.7,6.2,0,9.3c0.2,0.3,0.4,0.6,0.5,1c0.6,1.4,0,2.9-1.3,3.5c-1.4,0.7-2.6,0.3-3.5-1
		C171.3,116.5,170.3,113.7,170.4,110.4z"/>
	<path class="st0" d="M55,50.7c0,2.8-0.7,5.4-2.1,7.8c-2,3.3-1.8,6.6,0,9.9c1,1.8,0.6,3.3-0.7,4.1c-1.4,0.8-3.1,0.3-4-1.5
		c-2.6-4.7-3.1-9.5-0.4-14.2c2.2-3.8,2.2-7.5,0.6-11.4c-0.8-2-0.3-3.5,1.2-4.1c1.6-0.7,3,0.1,3.9,2.2C54.3,45.7,55,48.1,55,50.7z"/>
	<path class="st0" d="M190.3,176.1c-4.9,0-9.8,0-14.7,0c-0.6,0-1.1,0-2,0c0.4-0.6,0.7-1,1-1.4c7.2-10.3,5.7-20.5-1.7-30
		c-1-1.3-2.5-1.5-3.7-0.7c-1.3,0.9-1.5,2.4-0.7,3.8c0.3,0.6,0.8,1.1,1.1,1.6c2.7,4,4.6,8.3,4,13.4c-0.6,4.6-3,8.3-6,11.7
		c-0.9,1.1-1.9,1.5-3.4,1.5c-28-0.1-56.1,0-84.1,0c-2.9,0-4.3,0.9-4.2,2.8c0,1.9,1.4,2.7,4.3,2.7c35.2,0,70.3,0,105.5,0
		c0.6,0,1.3,0,2.1,0c-1.9,4.1-3.8,7.9-5.5,11.8c-1.8,4.2-4.9,6-9.5,6c-47.5-0.1-94.9,0-142.4,0c-0.7,0-1.3,0-2,0
		c-2.6-0.2-5-1.2-6.2-3.5c-2.5-4.6-4.6-9.3-7-14.2c0.7,0,1,0,1.4,0c16.2,0,32.4,0,48.7,0c2.2,0,3.3-0.9,3.4-2.6
		c0-1.8-1.2-2.8-3.4-2.8c-3.4,0-6.9,0-10.3,0c-6.2,0-6.2,0-8.5-5.8c0-0.1-0.1-0.2-0.2-0.3c-2.3-6.3-1.5-12.4,1.3-18.4
		c10.1,14.4,27.4,15.2,38.2,7.8c5.7-3.9,9.7-9.1,11.3-15.8c2.6-10.5-0.2-19.6-7.8-27.3c4.4-1.4,8.7-2,13.1-2c9.4,0,18.2,2.4,26.8,6
		c11.1,4.7,20.8,11.5,30.3,18.7c1.8,1.3,3.4,1.4,4.4,0c1-1.3,0.7-2.8-1-4.2c-2.7-2.2-5.5-4.4-8.4-6.2c-1.2-0.7-1.4-1.4-1.1-2.8
		c3.3-15.1-7.2-30.3-22.4-32.5c-5.6-0.8-11.1-1.6-16-4.5c-4.2-2.4-7.7-5.7-11.4-8.8c-2.8-2.4-5.8-4-9.6-3.8
		c-1.6,0.1-3.3-2.4-2.8-3.8c1.9-5.3-0.5-11-5.5-13.1c-5.1-2.1-10.8,0.1-13.2,5.3c-0.3,0.6-0.6,1.1-1.2,1.4
		c-5.5,2.6-7.7,8.2-5.4,13.4c2.2,5.1,7.7,7.3,13.3,5.3c0.4-0.1,0.8-0.6,1.1-0.2c1,1.2,2.6,1.8,2.4,3.9c-0.2,2.1,0.5,4.2,1.7,6
		c1.1,1.6,2.4,3.1,3.7,4.7c2.4,3,5.1,5.8,7.1,9.1c0.4,0.7,0.7,1.2-0.5,1.4c-3.3,0.5-6.6,1.4-9.8,2.5c-0.8,0.3-1.4,0.2-2-0.2
		c-3.3-1.6-6.8-2.5-10.4-2.8c-5.4-0.5-10.5-2.1-15-5.1c-3.6-2.4-6.8-5.3-10-8c-2.7-2.2-5.6-3.7-9.2-3.5c-1.8,0.1-3.4-2.4-2.9-4
		c1.9-5.1-0.6-10.9-5.6-12.9c-5.1-2.1-10.7,0.1-13.1,5.1c-0.2,0.5-0.2,1.1-0.8,1.3c-3.7,1.3-5.6,4.1-6.7,7.7c0,1.3,0,2.7,0,4
		c0.4,1.6,0.7,3.2,1.9,4.6c3,3.5,6.7,4.5,11.1,3.5c2.5-0.6,4.1,0.5,4.2,3.1c0.2,3,1.2,5.6,3.1,7.9c2.6,3.1,5.2,6.2,7.6,9.4
		c3.5,4.6,5.4,9.8,5.9,15.5c0.1,1.5,0.1,3.1,0.6,4.5c0.8,2.3,0.2,4.1-0.8,6.2c-4.1,8.2-4.8,16.6-1.3,25.2c0.9,2.1,0.8,2.2-1.5,2.2
		c-8.8,0-17.6,0-26.4,0c-2.6,0-3.6,0.7-4.5,3c0,0.8,0,1.7,0,2.5c0.5,0.2,0.5,0.7,0.7,1.1c2.2,4.5,4.3,9,6.4,13.5
		c2.7,6,7.4,8.9,14,8.9c24.6,0,49.2,0,73.8,0c23.3,0,46.6,0,69.8,0c5.3,0,9.7-2,12.2-6.7c2.9-5.4,5.5-11.1,8-16.7
		C195.1,178.7,193.3,176.1,190.3,176.1z M86.7,79.2c-1.3,1.4-2.3,2.3-3.8,0.2c-0.6-0.8-1.7-1.1-2.7-1c-1,0-1.8,0.4-2.6,0.8
		c-2.7,1.4-5.5,0.5-6.7-2c-1.2-2.6,0-5.4,3-6.5c1.7-0.6,2.8-1.7,3.4-3.4c1-2.9,3.9-4.2,6.5-3c2.5,1.2,3.4,4,2,6.7
		c-1.4,2.7-1.2,4.1,1,6.3C87.6,78.1,87.5,78.4,86.7,79.2z M89.9,92.7c-1.2-1.5-2-3.2-1.8-5.1c0.5-5.1,6.2-7.8,10.4-4.7
		c2.6,1.9,5,4,7.4,6.1c6.6,5.6,14.2,8.7,22.8,9.4c12.8,1.1,22.4,13.7,19.5,25.9c-5.8-3.7-11.5-7.1-17.6-9.8
		c-8.9-3.9-18.2-6.2-28-5.8c-0.6,0-1,0.1-1.3-0.6C98.5,102.2,93.9,97.7,89.9,92.7z M30.8,95.5c-1.4,1.7-2.4,1.8-3.9,0.1
		c-1.3-1.4-3.2-1.3-4.8-0.3c-1.4,0.8-2.8,1.1-4.3,0.7c-1.8-0.6-3.1-2.2-3.2-4.1c-0.1-2,0.9-4,2.8-4.6c2.2-0.7,3.5-2,4.2-4.2
		c0.7-2.1,3.1-3.2,5.3-2.7c2.1,0.5,3.6,2.4,3.6,4.6c0,0.9-0.2,1.6-0.6,2.4c-1.4,2.8-1.3,4.1,0.9,6.3C31.6,94.3,31.5,94.6,30.8,95.5z
		 M40.6,117.1c-2.2-2.8-4.5-5.5-6.8-8.2c-2.4-2.9-2.3-6.5,0.1-9c2.5-2.5,6.2-2.7,9.1-0.2c2.6,2.1,5.2,4.3,7.8,6.4
		c6.3,5.1,13.4,7.9,21.5,8.5c11.5,0.9,20.5,10.6,20.4,22.1c-0.2,12-9.6,21.5-21.4,21.8c-12,0.3-21.8-8.8-22.6-20.7
		C48.3,130,45.5,123.1,40.6,117.1z"/>
	<path class="st0" d="M159.7,154.7c-2.4-2.6-5.5-4.1-8.8-5c-4.4-1.3-9-1.7-13.5-2.6c-7.6-1.4-14-4.1-16-12.6c-0.4-1.8-2.1-2.8-4-2.9
		c-1.9-0.1-3.4,0.8-4.2,2.6c-0.6,1.4-1.2,2.9-1.6,4.4c-3.8,12.7,1.7,24.6,13.6,29.4c4.6,1.9,9.5,2.7,15,2.7c1.4,0.1,3.4-0.1,5.4-0.4
		c4.7-0.7,9.2-1.9,13.1-4.7C162.8,162.6,163.1,158.4,159.7,154.7z M154.9,161.7c-2.7,1.6-5.6,2.5-8.6,3c-7,1.2-13.9,0.8-20.5-2.4
		c-9.5-4.6-11.7-14.8-8.5-22.9c0.1,0,0.1,0,0.2,0c3.2,8.1,10,11.2,17.9,12.8c4.5,0.9,9.2,1.3,13.7,2.5c2.3,0.6,4.5,1.4,6.3,3.1
		C157,159.5,157,160.4,154.9,161.7z"/>
</g>
</svg>
